<svg id="Layer_1" data-name="Layer 1" xmlns="http://www.w3.org/2000/svg" viewBox="0 0 246.59 246.59"><defs><style>.cls-1{fill:#bd6e38;}.cls-1,.cls-2{stroke:#fff;stroke-miterlimit:10;stroke-width:10px;}.cls-2{fill:none;}.cls-3{fill:#fff;}</style></defs><title>DataChoice</title><circle class="cls-1" cx="123.3" cy="123.3" r="118.3"/><rect class="cls-2" x="45.36" y="58.57" width="155.87" height="129.45" rx="7.09"/><rect class="cls-3" x="45.36" y="71.59" width="155.87" height="10.72"/><rect class="cls-3" x="45.36" y="126.49" width="155.87" height="2.68"/><rect class="cls-3" x="45.36" y="115.49" width="155.87" height="2.68"/><rect class="cls-3" x="45.36" y="104.49" width="155.87" height="2.68"/><rect class="cls-3" x="45.36" y="93.49" width="155.87" height="2.68"/><rect class="cls-3" x="45.36" y="137.49" width="155.87" height="2.68"/><rect class="cls-3" x="45.36" y="148.49" width="155.87" height="2.68"/><rect class="cls-3" x="45.36" y="159.49" width="155.87" height="2.68"/><rect class="cls-3" x="45.36" y="160.49" width="155.87" height="2.68"/><rect class="cls-3" x="45.36" y="171.49" width="155.87" height="2.68"/><rect class="cls-3" x="63.28" y="126.84" width="129.45" height="2.32" transform="translate(-4.7 251.3) rotate(-90)"/><rect class="cls-3" x="101.37" y="126.84" width="129.45" height="2.32" transform="translate(33.39 289.39) rotate(-90)"/><rect class="cls-3" x="26.3" y="126.84" width="129.45" height="2.32" transform="translate(-41.68 214.32) rotate(-90)"/></svg>