<svg id="Layer_1" data-name="Layer 1" xmlns="http://www.w3.org/2000/svg" viewBox="0 0 37.44 37.44"><defs><style>.cls-1{fill:#c67137;}.cls-1,.cls-2{stroke:#fff;stroke-miterlimit:10;}.cls-2{fill:#f4f0ee;}</style></defs><title>List_Clients</title><circle class="cls-1" cx="18.72" cy="18.72" r="18.22"/><path class="cls-2" d="M9,25.92c-.54,0-1-.31-1-.71V13.05c0-2.14,12-2.17,12,0V25.12c0,.4-.43.72-.95.72C13,25.84,10.25,25.89,9,25.92Z" transform="translate(-1.28 -1.28)"/><circle class="cls-2" cx="12.74" cy="6.28" r="2.34"/><path class="cls-2" d="M21,25.92c-.54,0-1-.31-1-.71V13.05c0-2.14,12-2.17,12,0V25.12c0,.4-.43.72-1,.72C24.93,25.84,22.21,25.89,21,25.92Z" transform="translate(-1.28 -1.28)"/><circle class="cls-2" cx="24.7" cy="6.28" r="2.34"/><path class="cls-2" d="M15,34.77a.87.87,0,0,1-1-.72V21.9c0-2.15,12-2.17,12,0V34c0,.4-.43.72-.95.72C19,34.69,16.23,34.73,15,34.77Z" transform="translate(-1.28 -1.28)"/><circle class="cls-2" cx="18.72" cy="15.13" r="2.34"/></svg>