<svg id="Layer_1" data-name="Layer 1" xmlns="http://www.w3.org/2000/svg" viewBox="0 0 38.61 38.61"><defs><style>.cls-1{fill:#bd6e38;stroke:#fff;stroke-miterlimit:10;stroke-width:2px;}.cls-2{fill:#fff;}</style></defs><title>New-Home-Icon</title><circle class="cls-1" cx="19.3" cy="19.3" r="18.3"/><path class="cls-2" d="M10.07,20.41V32.12a2,2,0,0,0,2,2h5.28v-8h5.3v8H29a1,1,0,0,0,1-1V20.41l-9.94-9Z" transform="translate(-0.7 -0.7)"/><path class="cls-2" d="M35.54,18.82,30,14.11V6.88a1,1,0,0,0-1-1h-2.6a1,1,0,0,0-1,1v3.36l-4.8-4A.68.68,0,0,0,20,6a.68.68,0,0,0-.56.16l-15,12.63a.71.71,0,0,0-.08,1l.79.94a.72.72,0,0,0,1,.09L20,9.19l10,8.4,3.86,3.26a.72.72,0,0,0,1-.09l.79-.94A.71.71,0,0,0,35.54,18.82Z" transform="translate(-0.7 -0.7)"/></svg>