<svg id="Layer_2" data-name="Layer 2" xmlns="http://www.w3.org/2000/svg" viewBox="0 0 1836.6 480.94"><defs><style>.cls-1,.cls-2,.cls-4{fill:#f37a1f;}.cls-2{font-size:208.92px;letter-spacing:0.07em;}.cls-2,.cls-4{stroke:#f37a1f;stroke-miterlimit:10;stroke-width:21px;font-family:Montserrat-MediumItalic, Montserrat;font-weight:500;font-style:italic;}.cls-3{letter-spacing:0.06em;}.cls-4{font-size:213.9px;letter-spacing:0.07em;}</style></defs><title>SERVER_Stihl_Titlte</title><path class="cls-1" d="M1037.24,321.52l-11.78,39.28H944.31a10.11,10.11,0,0,0-9.5,7.18l-2.78,8.6a4.58,4.58,0,0,0,4.07,6.11l51.68.55c16.41,0,32.15,15.1,25.91,31.18l-11.13,40.69c-2.07,7.58-6.94,19.37-13.61,22.9-9.42,5-18.52,5-24.73,5H854.7l11.19-39.9h88a10,10,0,0,0,9.3-6.67l2.89-7.65c1.35-3.57-1.17-7.45-4.8-7.39l-61.18.87c-5.42-.52-10.15-4.69-13.45-10.25a33.76,33.76,0,0,1-2.95-26.93l11.66-38.22C898.78,331,912.2,319.8,927.57,320Z" transform="translate(-41.7 -283.07)"/><text class="cls-2" transform="matrix(0.99, 0, -0.16, 0.99, 969.56, 190.05)">ER<tspan class="cls-3" x="321.1" y="0">V</tspan><tspan x="481.34" y="0">ER</tspan></text><path class="cls-1" d="M229.15,317.55l-12.1,40.33H133.72a10.38,10.38,0,0,0-9.76,7.38l-2.85,8.83a4.7,4.7,0,0,0,4.18,6.27l53.06.57c16.86,0,33,15.51,26.61,32l-11.42,41.79c-2.13,7.78-7.13,19.9-14,23.52-9.67,5.12-19,5.12-25.39,5.12H41.7l11.49-41h90.39a10.33,10.33,0,0,0,9.55-6.85l3-7.85c1.39-3.67-1.19-7.65-4.92-7.6l-62.83.9c-5.57-.54-10.43-4.82-13.81-10.53a34.67,34.67,0,0,1-3-27.65l12-39.25c3.5-16.3,17.28-27.79,33.06-27.57Z" transform="translate(-41.7 -283.07)"/><text class="cls-4" transform="matrix(0.99, 0, -0.16, 0.99, 174.66, 189.95)">TIHL</text></svg>