<svg id="Layer_1" data-name="Layer 1" xmlns="http://www.w3.org/2000/svg" xmlns:xlink="http://www.w3.org/1999/xlink" viewBox="0 0 38.69 27.85"><defs><style>.cls-1,.cls-10,.cls-14,.cls-4{fill:none;}.cls-2{clip-path:url(#clip-path);}.cls-3{fill:#262424;}.cls-14,.cls-4{stroke:#262424;}.cls-10,.cls-14,.cls-4{stroke-miterlimit:10;}.cls-4{stroke-width:0.04px;}.cls-5{fill:#585047;}.cls-6{fill:#000301;}.cls-7{fill:#fff;}.cls-8{fill:#7c6a58;}.cls-9{fill:#c88e56;}.cls-10{stroke:#000301;stroke-width:0.19px;}.cls-11{fill:#eed1ad;}.cls-12{fill:#ce8f54;}.cls-13{fill:#c97231;}.cls-14{stroke-width:0.23px;}</style><clipPath id="clip-path" transform="translate(-0.74 -5.56)"><rect class="cls-1" x="-15.13" y="-2.12" width="73.52" height="41.36"/></clipPath></defs><title>Stihl_Server_IconToolBar</title><g class="cls-2"><polygon class="cls-3" points="36.12 1.76 35.17 1.43 34.22 1.1 34.93 0.57 35.65 0.03 35.88 0.9 36.12 1.76"/><polygon class="cls-4" points="36.12 1.76 35.17 1.43 34.22 1.1 34.93 0.57 35.65 0.03 35.88 0.9 36.12 1.76"/><polygon class="cls-3" points="37.34 3.62 36.85 2.74 36.37 1.85 37.26 1.94 38.15 2.03 37.74 2.83 37.34 3.62"/><polygon class="cls-4" points="37.34 3.62 36.85 2.74 36.37 1.85 37.26 1.94 38.15 2.03 37.74 2.83 37.34 3.62"/><polygon class="cls-3" points="37.1 5.54 37.18 4.54 37.26 3.54 37.96 4.1 38.66 4.66 37.88 5.1 37.1 5.54"/><polygon class="cls-4" points="37.1 5.54 37.18 4.54 37.26 3.54 37.96 4.1 38.66 4.66 37.88 5.1 37.1 5.54"/><polygon class="cls-3" points="36.21 6.85 36.67 5.97 37.14 5.09 37.67 5.95 38.2 6.81 37.2 6.83 36.21 6.85"/><polygon class="cls-4" points="36.21 6.85 36.67 5.97 37.14 5.09 37.67 5.95 38.2 6.81 37.2 6.83 36.21 6.85"/><polygon class="cls-3" points="34.28 7.67 35.13 7.18 35.99 6.68 36 7.68 36 8.69 35.14 8.18 34.28 7.67"/><polygon class="cls-4" points="34.28 7.67 35.13 7.18 35.99 6.68 36 7.68 36 8.69 35.14 8.18 34.28 7.67"/><polygon class="cls-3" points="32.63 8.71 33.49 8.21 34.34 7.72 34.35 8.72 34.36 9.72 33.49 9.21 32.63 8.71"/><polygon class="cls-4" points="32.63 8.71 33.49 8.21 34.34 7.72 34.35 8.72 34.36 9.72 33.49 9.21 32.63 8.71"/><polygon class="cls-3" points="30.98 9.74 31.84 9.25 32.69 8.76 32.7 9.76 32.71 10.76 31.84 10.25 30.98 9.74"/><polygon class="cls-4" points="30.98 9.74 31.84 9.25 32.69 8.76 32.7 9.76 32.71 10.76 31.84 10.25 30.98 9.74"/><polygon class="cls-3" points="29.33 10.78 30.19 10.29 31.05 9.79 31.05 10.79 31.06 11.8 30.2 11.29 29.33 10.78"/><polygon class="cls-4" points="29.33 10.78 30.19 10.29 31.05 9.79 31.05 10.79 31.06 11.8 30.2 11.29 29.33 10.78"/><polygon class="cls-3" points="27.68 11.81 28.54 11.32 29.4 10.83 29.41 11.83 29.41 12.83 28.55 12.32 27.68 11.81"/><polygon class="cls-4" points="27.68 11.81 28.54 11.32 29.4 10.83 29.41 11.83 29.41 12.83 28.55 12.32 27.68 11.81"/><polygon class="cls-3" points="26.04 12.85 26.89 12.36 27.75 11.87 27.76 12.87 27.76 13.87 26.9 13.36 26.04 12.85"/><polygon class="cls-4" points="26.04 12.85 26.89 12.36 27.75 11.87 27.76 12.87 27.76 13.87 26.9 13.36 26.04 12.85"/><polygon class="cls-3" points="24.12 14.06 24.98 13.56 25.84 13.07 25.84 14.07 25.85 15.07 24.99 14.56 24.12 14.06"/><polygon class="cls-4" points="24.12 14.06 24.98 13.56 25.84 13.07 25.84 14.07 25.85 15.07 24.99 14.56 24.12 14.06"/><polygon class="cls-3" points="22.48 15.09 23.33 14.6 24.19 14.11 24.19 15.11 24.2 16.11 23.34 15.6 22.48 15.09"/><polygon class="cls-4" points="22.48 15.09 23.33 14.6 24.19 14.11 24.19 15.11 24.2 16.11 23.34 15.6 22.48 15.09"/><polygon class="cls-3" points="20.76 9.32 19.88 9.8 18.99 10.29 19.01 9.28 19.03 8.28 19.89 8.8 20.76 9.32"/><polygon class="cls-4" points="20.76 9.32 19.88 9.8 18.99 10.29 19.01 9.28 19.03 8.28 19.89 8.8 20.76 9.32"/><polygon class="cls-3" points="22.45 8.29 21.57 8.78 20.69 9.26 20.71 8.26 20.73 7.25 21.59 7.77 22.45 8.29"/><polygon class="cls-4" points="22.45 8.29 21.57 8.78 20.69 9.26 20.71 8.26 20.73 7.25 21.59 7.77 22.45 8.29"/><polygon class="cls-3" points="24.15 7.27 23.27 7.75 22.39 8.24 22.41 7.23 22.43 6.23 23.29 6.75 24.15 7.27"/><polygon class="cls-4" points="24.15 7.27 23.27 7.75 22.39 8.24 22.41 7.23 22.43 6.23 23.29 6.75 24.15 7.27"/><polygon class="cls-3" points="25.85 6.24 24.97 6.73 24.09 7.21 24.11 6.21 24.13 5.2 24.99 5.72 25.85 6.24"/><polygon class="cls-4" points="25.85 6.24 24.97 6.73 24.09 7.21 24.11 6.21 24.13 5.2 24.99 5.72 25.85 6.24"/><polygon class="cls-3" points="27.55 5.22 26.67 5.7 25.79 6.19 25.81 5.18 25.83 4.18 26.69 4.7 27.55 5.22"/><polygon class="cls-4" points="27.55 5.22 26.67 5.7 25.79 6.19 25.81 5.18 25.83 4.18 26.69 4.7 27.55 5.22"/><polygon class="cls-3" points="29.25 4.19 28.37 4.68 27.49 5.17 27.51 4.16 27.53 3.15 28.39 3.67 29.25 4.19"/><polygon class="cls-4" points="29.25 4.19 28.37 4.68 27.49 5.17 27.51 4.16 27.53 3.15 28.39 3.67 29.25 4.19"/><polygon class="cls-3" points="30.95 3.17 30.07 3.65 29.18 4.14 29.2 3.13 29.22 2.13 30.09 2.65 30.95 3.17"/><polygon class="cls-4" points="30.95 3.17 30.07 3.65 29.18 4.14 29.2 3.13 29.22 2.13 30.09 2.65 30.95 3.17"/><polygon class="cls-3" points="32.92 1.98 32.04 2.46 31.16 2.95 31.18 1.95 31.2 0.94 32.06 1.46 32.92 1.98"/><polygon class="cls-4" points="32.92 1.98 32.04 2.46 31.16 2.95 31.18 1.95 31.2 0.94 32.06 1.46 32.92 1.98"/><polygon class="cls-3" points="34.61 1.87 33.6 1.93 32.6 1.99 33.05 1.09 33.49 0.19 34.05 1.03 34.61 1.87"/><polygon class="cls-4" points="34.61 1.87 33.6 1.93 32.6 1.99 33.05 1.09 33.49 0.19 34.05 1.03 34.61 1.87"/><g class="cls-2"><path class="cls-5" d="M33.15,6.81,33,6.92h0L18,16a.07.07,0,0,0,0,.1l3.76,6.23a.08.08,0,0,0,.1,0l15-9,0,0,.21-.12A3.73,3.73,0,0,0,38.25,8a3.69,3.69,0,0,0-5.1-1.19" transform="translate(-0.74 -5.56)"/><path class="cls-4" d="M33.15,6.81,33,6.92h0L18,16a.07.07,0,0,0,0,.1l3.76,6.23a.08.08,0,0,0,.1,0l15-9,0,0,.21-.12A3.73,3.73,0,0,0,38.25,8,3.69,3.69,0,0,0,33.15,6.81Z" transform="translate(-0.74 -5.56)"/><path class="cls-6" d="M16.14,13.48c1.79,3,1.66,6.33-.29,7.5s-5-.27-6.77-3.23-1.66-6.33.29-7.51,5,.28,6.77,3.24" transform="translate(-0.74 -5.56)"/><path class="cls-7" d="M15,14.33c1.46,2.42,1.58,5,.28,5.79s-3.53-.53-5-2.95-1.58-5-.28-5.79,3.54.54,5,2.95" transform="translate(-0.74 -5.56)"/><path class="cls-8" d="M29.87,10.36l-.1.07h0l-9,5.46a0,0,0,0,0,0,.06L23,19.71s0,0,.06,0l9.05-5.46h0l.13-.07a2.26,2.26,0,0,0,.74-3.1,2.22,2.22,0,0,0-3.08-.72" transform="translate(-0.74 -5.56)"/><path class="cls-9" d="M12.2,14.78,4,19.75a1.4,1.4,0,0,0-.48,1.92l1.37,2.27-3,3.26a3.83,3.83,0,0,0-.93,1.85,3.73,3.73,0,0,0,2.21,4.16,5.14,5.14,0,0,0,3.82-.77l3.18-1.94a1.15,1.15,0,0,0,.25-.12l8.24-5a1.4,1.4,0,0,0,.47-1.92l-5-8.24a1.39,1.39,0,0,0-1.91-.47" transform="translate(-0.74 -5.56)"/><path class="cls-10" d="M12.2,14.78,4,19.75a1.4,1.4,0,0,0-.48,1.92l1.37,2.27-3,3.26a3.83,3.83,0,0,0-.93,1.85,3.73,3.73,0,0,0,2.21,4.16,5.14,5.14,0,0,0,3.82-.77l3.18-1.94a1.15,1.15,0,0,0,.25-.12l8.24-5a1.4,1.4,0,0,0,.47-1.92l-5-8.24A1.39,1.39,0,0,0,12.2,14.78Z" transform="translate(-0.74 -5.56)"/><path class="cls-11" d="M7.63,25.47a2.82,2.82,0,0,1,.72-2c1.85-2.08,7-7.55,8.51-8.39s5.32.16,6.38,2.66.73,4.34-4.39,7.47-7,4.48-8.88,3.6a3.43,3.43,0,0,1-2.34-3.36" transform="translate(-0.74 -5.56)"/><path class="cls-10" d="M7.63,25.47a2.82,2.82,0,0,1,.72-2c1.85-2.08,7-7.55,8.51-8.39s5.32.16,6.38,2.66.73,4.34-4.39,7.47-7,4.48-8.88,3.6A3.43,3.43,0,0,1,7.63,25.47Z" transform="translate(-0.74 -5.56)"/><path class="cls-12" d="M20.42,18.22A3.2,3.2,0,1,1,16,17.14a3.2,3.2,0,0,1,4.39,1.08" transform="translate(-0.74 -5.56)"/><path class="cls-13" d="M19.24,19a1.76,1.76,0,1,1-2.42-.6,1.76,1.76,0,0,1,2.42.6" transform="translate(-0.74 -5.56)"/><path class="cls-3" d="M15.83,15.33a.39.39,0,0,0-.12.46c.44,1,1.29,4.31,1.56,4.48s.5,0,1-.32a.39.39,0,0,0,.18-.48l-1.6-4.32a.39.39,0,0,0-.61-.17Z" transform="translate(-0.74 -5.56)"/><line class="cls-14" x1="9.08" y1="18.24" x2="12.03" y2="16.46"/><line class="cls-14" x1="9.64" y1="19.17" x2="12.6" y2="17.39"/><line class="cls-14" x1="10.2" y1="20.11" x2="13.16" y2="18.32"/><line class="cls-14" x1="10.76" y1="21.04" x2="13.72" y2="19.25"/><path class="cls-3" d="M6.09,21.34a.51.51,0,1,1-.7-.17.51.51,0,0,1,.7.17" transform="translate(-0.74 -5.56)"/><path class="cls-14" d="M6.09,21.34a.51.51,0,1,1-.7-.17A.51.51,0,0,1,6.09,21.34Z" transform="translate(-0.74 -5.56)"/><path class="cls-7" d="M4.15,31.07A1.16,1.16,0,0,1,3,29.21l.3-.38,1-1.34c.53-.68,1.58-.89,1.89-.38l.63,1,.62,1c.31.51-.35,1.36-1.2,1.53L4.62,31Z" transform="translate(-0.74 -5.56)"/><path class="cls-3" d="M5.19,27.84l-1.12,1.4a.45.45,0,1,1-.7-.56l1.12-1.4a.46.46,0,0,1,.63-.07.44.44,0,0,1,.07.63" transform="translate(-0.74 -5.56)"/><path class="cls-3" d="M35.36,8.06a.85.85,0,0,1-.29,1.18A.86.86,0,0,1,33.88,9a.88.88,0,0,1,.3-1.19.86.86,0,0,1,1.18.3" transform="translate(-0.74 -5.56)"/><path class="cls-14" d="M35.36,8.06a.85.85,0,0,1-.29,1.18A.86.86,0,0,1,33.88,9a.88.88,0,0,1,.3-1.19A.86.86,0,0,1,35.36,8.06Z" transform="translate(-0.74 -5.56)"/></g></g></svg>