<svg id="Layer_1" data-name="Layer 1" xmlns="http://www.w3.org/2000/svg" xmlns:xlink="http://www.w3.org/1999/xlink" viewBox="0 0 516.4 53.2"><defs><style>.cls-1,.cls-12,.cls-8{fill:none;}.cls-2{clip-path:url(#clip-path);}.cls-3,.cls-4,.cls-9{fill:#d7792c;}.cls-4{font-size:48.75px;}.cls-4,.cls-9{font-family:Montserrat-MediumItalic, Montserrat MediumItalic;font-weight:500;font-style:italic;}.cls-5{letter-spacing:0.07em;}.cls-6{letter-spacing:0.07em;}.cls-7{letter-spacing:0.05em;}.cls-12,.cls-8{stroke:#d7792c;stroke-miterlimit:10;}.cls-8{stroke-width:5.43px;}.cls-9{font-size:49.91px;}.cls-10{letter-spacing:0.07em;}.cls-11{letter-spacing:0.07em;}.cls-12{stroke-width:5.43px;}</style><clipPath id="clip-path" transform="translate(-12.16 -106.41)"><rect class="cls-1" y="37.79" width="560" height="250.21"/></clipPath></defs><title>TitleBanner</title><g class="cls-2"><g class="cls-2"><path class="cls-3" d="M302.53,112.28l-3.44,9.1H275.42a2.94,2.94,0,0,0-2.77,1.67l-.81,2c-.28.69.32,1.4,1.19,1.41l15.07.13c4.79,0,9.38,3.5,7.56,7.22l-3.25,9.43c-.6,1.76-2,4.49-4,5.31a18,18,0,0,1-7.22,1.15H249.29l3.26-9.24h25.67a3,3,0,0,0,2.72-1.55l.84-1.77c.39-.83-.34-1.72-1.4-1.71l-17.84.2a5.57,5.57,0,0,1-3.93-2.37,6.45,6.45,0,0,1-.86-6.24l3.4-8.86c1-3.67,4.91-6.27,9.39-6.22Z" transform="translate(-12.16 -106.41)"/><text class="cls-4" transform="matrix(1.23, 0, -0.2, 0.98, 282.79, 40.99)"><tspan class="cls-5">E</tspan><tspan class="cls-6" x="27.35" y="0">R</tspan><tspan class="cls-7" x="56.98" y="0">V</tspan><tspan class="cls-5" x="86.86" y="0">E</tspan><tspan x="114.21" y="0">R</tspan></text><polygon class="cls-8" points="328.9 11.69 330.75 7.53 301.02 7.53 285.92 40.99 316.55 40.99 318.4 36.83 293.79 36.83 298.65 26.03 319.84 26.03 321.67 21.96 300.49 21.96 305.12 11.69 328.9 11.69"/><path class="cls-8" d="M365.51,133.11H355.1l6.78-15h10.17q4.88,0,7.16,1.53a4,4,0,0,1,1.68,4.54,9.52,9.52,0,0,1-4.87,6.64Q372,133.11,365.51,133.11ZM387,123.74c.62-3.13-.25-5.54-2.62-7.25s-6-2.55-11-2.55h-15.7l-15.1,33.46h6.08l4.56-10.23h12.4L371,147.4h6.38l-5.53-10.9A22.62,22.62,0,0,0,382.05,132,14,14,0,0,0,387,123.74Z" transform="translate(-12.16 -106.41)"/><polygon class="cls-8" points="423.85 7.53 396.03 35.06 393.34 7.53 387.14 7.53 390.58 40.99 396.48 40.99 430.11 7.53 423.85 7.53"/><polygon class="cls-8" points="467.56 11.69 469.41 7.53 439.68 7.53 424.58 40.99 455.22 40.99 457.07 36.83 432.45 36.83 437.31 26.03 458.5 26.03 460.33 21.96 439.15 21.96 443.79 11.69 467.56 11.69"/><path class="cls-8" d="M504.17,133.11H493.76l6.78-15h10.18q4.88,0,7.15,1.53a4,4,0,0,1,1.69,4.54,9.54,9.54,0,0,1-4.88,6.64Q510.68,133.11,504.17,133.11Zm21.49-9.37c.62-3.13-.25-5.54-2.62-7.25s-6-2.55-10.95-2.55H496.38l-15.1,33.46h6.08l4.57-10.23h12.39l5.31,10.23H516l-5.53-10.9A22.58,22.58,0,0,0,520.71,132,13.94,13.94,0,0,0,525.66,123.74Z" transform="translate(-12.16 -106.41)"/><path class="cls-3" d="M66.83,111.36l-3.52,9.35H39a3,3,0,0,0-2.84,1.7l-.84,2c-.29.71.33,1.45,1.22,1.45l15.48.14c4.92,0,9.63,3.59,7.76,7.41l-3.33,9.68c-.62,1.8-2.08,4.61-4.08,5.45a18.27,18.27,0,0,1-7.4,1.19H12.16l3.35-9.5H41.88a3,3,0,0,0,2.78-1.58l.87-1.82c.4-.85-.35-1.77-1.44-1.76l-18.32.21a5.73,5.73,0,0,1-4-2.44,6.6,6.6,0,0,1-.89-6.41l3.5-9.09c1-3.78,5-6.44,9.64-6.39Z" transform="translate(-12.16 -106.41)"/><text class="cls-9" transform="matrix(1.23, 0, -0.2, 0.98, 50.94, 40.97)"><tspan class="cls-10">TI</tspan><tspan class="cls-11" x="43.72" y="0">H</tspan><tspan x="79.7" y="0">L</tspan></text><polygon class="cls-12" points="62.71 40.97 68.81 40.97 82.37 10.96 97.1 10.96 99.06 6.71 63.38 6.71 61.48 10.96 76.21 10.96 62.71 40.97"/><polygon class="cls-12" points="94.63 40.97 100.79 40.97 116.25 6.71 110.09 6.71 94.63 40.97"/><polygon class="cls-12" points="164.44 6.71 157.81 21.39 133.04 21.39 139.66 6.71 133.5 6.71 118.05 40.97 124.21 40.97 131.05 25.79 155.82 25.79 148.98 40.97 155.14 40.97 170.6 6.71 164.44 6.71"/><polygon class="cls-12" points="172.39 40.97 201.97 40.97 203.87 36.71 180.45 36.71 194.01 6.71 187.85 6.71 172.39 40.97"/></g></g></svg>